<svg xmlns="http://www.w3.org/2000/svg" viewBox="0 0 256 256" width="256" height="256"><defs><linearGradient id="ruby" x1="0" y1="0" x2="1" y2="1"><stop stop-color="#FFCFD7"/><stop offset=".35" stop-color="#FF6087"/><stop offset="1" stop-color="#8F103C"/></linearGradient><radialGradient id="petal"><stop stop-color="#FFF1F5"/><stop offset=".52" stop-color="#ED99BA"/><stop offset="1" stop-color="#9D4479"/></radialGradient><linearGradient id="gold" x1=".12" y1="0" x2=".89" y2="1"><stop stop-color="#FFFAD9"/><stop offset=".32" stop-color="#F9DF85"/><stop offset=".65" stop-color="#BB8439"/><stop offset="1" stop-color="#FFF0C4"/></linearGradient><linearGradient id="jade" x1="0" y1="0" x2=".8" y2="1"><stop stop-color="#B1FFE1"/><stop offset=".48" stop-color="#16A977"/><stop offset="1" stop-color="#075D5A"/></linearGradient><linearGradient id="sapphire" x1="0" y1="0" x2=".83" y2="1"><stop stop-color="#D1FFF9"/><stop offset=".3" stop-color="#4BDACF"/><stop offset=".65" stop-color="#217CB1"/><stop offset="1" stop-color="#203B6A"/></linearGradient><linearGradient id="fire" x1="0" y1="0" x2=".9" y2="1"><stop stop-color="#FFFFD0"/><stop offset=".3" stop-color="#FFD348"/><stop offset=".65" stop-color="#F46E2F"/><stop offset="1" stop-color="#A51A25"/></linearGradient><radialGradient id="pearl"><stop stop-color="#FFFFFF"/><stop offset=".55" stop-color="#E9F2ED"/><stop offset="1" stop-color="#A1C6CB"/></radialGradient></defs><g stroke-linecap="round" stroke-linejoin="round"><rect x="66" y="109" width="128" height="107" rx="9" fill="url(#jade)" stroke="#F2DDA1" stroke-width="4"/><path d="M128 109 L128 216 M66 141 L194 141" stroke="#F2C663" stroke-width="14"/><rect x="55" y="95" width="150" height="36" rx="7" fill="url(#gold)" stroke="#FFECC0" stroke-width="4"/><path d="M130 96 Q60 55 89 39 Q119 24 130 96Z M129 95 Q196 35 179 37 Q146 22 129 95Z" fill="url(#ruby)" stroke="#FFE0B3" stroke-width="3"/><g fill="#F9DEA1" opacity=".92"><path d="M32 45 v16 M24 53 h16 M222 86 v13 M216 92 h13 M203 197 v14 M196 204 h14"/><circle cx="64" cy="219" r="2.2"/><circle cx="218" cy="135" r="2"/></g><g fill="#DFFFEA" opacity=".64"><circle cx="46" cy="132" r="2.4"/><circle cx="174" cy="26" r="1.8"/></g></g></svg>
